<svg width="805" height="281" viewBox="0 0 805 281" fill="none" xmlns="http://www.w3.org/2000/svg">
<path d="M24.7 211.7C29.6706 211.7 33.7 207.671 33.7 202.7C33.7 197.729 29.6706 193.7 24.7 193.7C19.7294 193.7 15.7 197.729 15.7 202.7C15.7 207.671 19.7294 211.7 24.7 211.7Z" fill="white"/>
<path d="M47.3 185.3C47.5 185.3 47.7 185.3 47.9 185.3C49.5 185.3 51 184.7 52.1 183.5L136.9 98.9C139.2 96.6 139.2 92.8 136.9 90.4C134.6 88.1 130.8 88.1 128.4 90.4L49 169.6C41.8 156.5 38 141.8 38 126.7C38 77.6 78 37.6 127.1 37.6C144.8 37.6 161.8 42.8 176.5 52.5C178.9 54.1 182 53.8 184.1 51.8L213 22.9C215.3 20.6 215.3 16.8 213 14.4C210.7 12.1 206.9 12.1 204.5 14.4L179 39.9001C163.4 30.5001 145.5 25.6 127.2 25.6C71.4 25.6 26 71 26 126.7C26 146.7 31.8 166 42.9 182.6C43.9 184.1 45.5 185.1 47.3 185.3Z" fill="white"/>
<path d="M208.1 66.2C206.1 63.5 202.4 63 199.7 65C197 67 196.5 70.7 198.5 73.4C210.1 88.9 216.2 107.3 216.2 126.7C216.2 175.8 176.2 215.8 127.1 215.8C111.8 215.8 97 211.9 83.8 204.6L163.2 125.3C165.5 123 165.5 119.2 163.2 116.8C160.9 114.5 157.1 114.5 154.7 116.8L70 201.4L13.5 257.8C11.2 260.1 11.2 263.9 13.5 266.3C14.7 267.5 16.2 268.1 17.7 268.1C19.2 268.1 20.8 267.5 21.9 266.3L75 213.3C90.7 222.8 108.6 227.8 127.1 227.8C182.8 227.8 228.2 182.5 228.2 126.7C228.2 104.7 221.2 83.7 208.1 66.2Z" fill="white"/>
<path d="M344.7 103.9H354.4C355.4 103.9 356.3 104.8 356.3 105.8V142.3C356.3 142.9 356.1 143.4 355.6 143.8C350.9 147.8 345.4 150.9 339.2 153.1C332.7 155.4 325.9 156.6 318.9 156.6C308.9 156.6 300 154.3 292 149.6C284 145 277.7 138.6 273.2 130.4C268.6 122.3 266.4 113.1 266.4 102.9C266.4 92.7 268.7 83.5 273.2 75.3C277.8 67.1 284.1 60.6999 292.1 56.0999C300.1 51.4999 309.2 49.2 319.2 49.2C327.1 49.2 334.3 50.5999 340.7 53.2999C346.6 55.7999 352.9 60.3999 357.3 65.1999C358 65.8999 358 67.1 357.3 67.8L351.1 74.4C350.4 75.2 349.2 75.2 348.4 74.5C340.6 67.2 330.3 62.5 319.7 62.5C312.2 62.5 305.4 64.1999 299.5 67.6999C293.5 71.0999 288.9 75.8999 285.5 82.0999C282.1 88.1999 280.4 95.2 280.4 102.9C280.4 110.5 282.1 117.4 285.5 123.5C288.9 129.6 293.6 134.5 299.5 138C305.5 141.5 312.2 143.2 319.6 143.2C328.1 143.2 335.5 141.1 341.9 137C342.4 136.7 342.8 136 342.8 135.4V105.8C342.8 104.7 343.7 103.9 344.7 103.9Z" fill="white"/>
<path d="M446.4 152.8L406.1 45.9C405.8 45.1 404.7 45.1 404.4 45.9L364.1 152.8C363.6 154 364.5 155.4 365.9 155.4H376.6C377.4 155.4 378.1 154.9 378.4 154.2L404.1 84.4C404.5 83.3 406 83.3 406.4 84.4L432.1 154.2C432.4 154.9 433.1 155.4 433.9 155.4H444.6C445.9 155.4 446.8 154 446.4 152.8Z" fill="white"/>
<path d="M506.2 142.3H466.2C465.1 142.3 464.3 141.4 464.3 140.4V52.3001C464.3 51.3001 463.5 50.4001 462.4 50.4001H452.1C451 50.4001 450.2 51.2001 450.2 52.3001V129.7L459.9 155.4H506.2C507.3 155.4 508.1 154.5 508.1 153.5V144.3C508.1 143.2 507.3 142.3 506.2 142.3Z" fill="white"/>
<path d="M551.2 50.4001H561.5C562.5 50.4001 563.4 51.3001 563.4 52.3001V140.5C563.4 141.5 564.3 142.4 565.3 142.4H605.3C606.3 142.4 607.2 143.3 607.2 144.3V153.6C607.2 154.6 606.3 155.5 605.3 155.5H551.2C550.2 155.5 549.3 154.6 549.3 153.6V52.3001C549.3 51.2001 550.1 50.4001 551.2 50.4001Z" fill="white"/>
<path d="M523 50.4001H533.3C534.3 50.4001 535.2 51.3001 535.2 52.3001V153.5C535.2 154.5 534.3 155.4 533.3 155.4H523C522 155.4 521.1 154.5 521.1 153.5V52.3001C521.1 51.2001 522 50.4001 523 50.4001Z" fill="white"/>
<path d="M678.1 144.2V153.5C678.1 154.5 677.2 155.4 676.2 155.4H622.3C621.3 155.4 620.4 154.5 620.4 153.5V52.3001C620.4 51.3001 621.3 50.4001 622.3 50.4001H676.2C677.2 50.4001 678.1 51.3001 678.1 52.3001V61.6001C678.1 62.6001 677.2 63.5001 676.2 63.5001H636.4C635.4 63.5001 634.5 64.4001 634.5 65.4001V94.7001C634.5 95.7001 635.4 96.6001 636.4 96.6001H666.7C667.7 96.6001 668.6 97.5001 668.6 98.5001V107.5C668.6 108.5 667.7 109.4 666.7 109.4H636.4C635.4 109.4 634.5 110.3 634.5 111.3V140.6C634.5 141.6 635.4 142.5 636.4 142.5H676.2C677.2 142.3 678.1 143.2 678.1 144.2Z" fill="white"/>
<path d="M710.5 149.6C702.2 145 695.7 138.5 690.9 130.3C686.2 122.1 683.8 113 683.8 102.8C683.8 92.7 686.2 83.6 690.9 75.3C695.6 67.1 702.2 60.7 710.5 56C718.8 51.4 728.2 49 738.5 49C748.8 49 758.1 51.3 766.4 56C774.7 60.6 781.2 67.1 785.9 75.2C790.6 83.4 792.9 92.5 792.9 102.7C792.9 112.9 790.6 122.1 785.9 130.2C781.2 138.4 774.7 144.8 766.4 149.4C758.1 154.1 748.8 156.4 738.5 156.4C728.2 156.6 718.8 154.2 710.5 149.6ZM758.9 138C764.9 134.5 769.7 129.7 773.1 123.5C776.6 117.4 778.3 110.5 778.3 102.9C778.3 95.3 776.6 88.4 773.1 82.3C769.6 76.2 764.9 71.3 758.9 67.8C752.9 64.3 746.1 62.6 738.6 62.6C731.1 62.6 724.2 64.4 718.1 67.8C712 71.3 707.2 76.1 703.7 82.3C700.2 88.4 698.5 95.3 698.5 102.9C698.5 110.5 700.2 117.4 703.7 123.5C707.2 129.6 712 134.5 718.1 138C724.2 141.5 731 143.2 738.6 143.2C746.1 143.2 752.8 141.5 758.9 138Z" fill="white"/>
<path d="M267.4 227.1V185.1H276.4C277.6 185.1 279 185.3 280.5 185.7C282 186.1 283.4 186.7 284.7 187.6C286 188.5 287.1 189.6 288 191C288.9 192.4 289.3 194.1 289.3 196C289.3 199.4 288.2 202.2 286 204.2C283.8 206.2 280.7 207.3 276.6 207.3H269.9V227H267.4V227.1ZM269.9 204.9H276.1C278.2 204.9 279.9 204.6 281.3 204.1C282.7 203.5 283.8 202.8 284.6 201.9C285.4 201 286 200.1 286.3 199.1C286.6 198.1 286.8 197.1 286.8 196.1C286.8 195 286.5 193.9 286 192.9C285.5 191.9 284.7 190.9 283.8 190.1C282.8 189.3 281.7 188.7 280.4 188.2C279.1 187.7 277.7 187.5 276.2 187.5H269.9V204.9Z" fill="white"/>
<path d="M325.8 227.1V185.1H334.8C336 185.1 337.4 185.3 338.9 185.7C340.4 186.1 341.8 186.7 343.1 187.6C344.4 188.5 345.5 189.6 346.4 191C347.3 192.4 347.7 194.1 347.7 196C347.7 198.9 346.9 201.3 345.4 203.2C343.9 205.1 341.6 206.3 338.7 207C340.3 210.4 341.9 213.8 343.5 217.1C345.1 220.4 346.7 223.8 348.2 227.1H345.5C343.9 223.7 342.4 220.4 340.8 217.1C339.2 213.8 337.7 210.5 336.1 207.2C335.7 207.2 335.4 207.3 335 207.3C334.7 207.3 334.3 207.3 334 207.3H328.3V227H325.8V227.1ZM328.3 204.9H334.5C336.6 204.9 338.3 204.6 339.7 204.1C341.1 203.5 342.2 202.8 343 201.9C343.8 201 344.4 200.1 344.7 199.1C345 198.1 345.2 197.1 345.2 196.1C345.2 195 344.9 193.9 344.4 192.9C343.9 191.9 343.1 190.9 342.2 190.1C341.2 189.3 340.1 188.7 338.8 188.2C337.5 187.7 336.1 187.5 334.6 187.5H328.3V204.9Z" fill="white"/>
<path d="M386.6 206.1C386.6 203.1 387.2 200.4 388.3 197.7C389.4 195.1 390.9 192.8 392.9 190.9C394.8 189 397.1 187.4 399.7 186.3C402.3 185.2 405.1 184.6 408 184.6C411 184.6 413.7 185.2 416.4 186.3C419 187.4 421.3 189 423.2 190.9C425.1 192.8 426.7 195.1 427.8 197.7C428.9 200.3 429.5 203.1 429.5 206.1C429.5 209.1 428.9 211.8 427.8 214.4C426.7 217 425.1 219.3 423.2 221.2C421.3 223.1 419 224.7 416.4 225.8C413.8 226.9 411 227.5 408 227.5C405 227.5 402.3 226.9 399.7 225.8C397.1 224.7 394.8 223.2 392.9 221.2C391 219.3 389.4 217 388.3 214.4C387.2 211.9 386.6 209.1 386.6 206.1ZM389.1 206.2C389.1 208.8 389.6 211.3 390.6 213.6C391.6 215.9 392.9 217.9 394.6 219.6C396.3 221.3 398.3 222.7 400.6 223.6C402.9 224.6 405.3 225.1 407.9 225.1C410.5 225.1 413 224.6 415.3 223.6C417.6 222.6 419.7 221.2 421.4 219.5C423.1 217.8 424.5 215.8 425.5 213.5C426.5 211.2 427 208.7 427 206.1C427 203.5 426.5 201 425.5 198.7C424.5 196.4 423.1 194.3 421.4 192.6C419.7 190.9 417.7 189.5 415.3 188.5C413 187.5 410.5 187 407.9 187C405.3 187 402.8 187.5 400.5 188.5C398.2 189.5 396.2 190.9 394.5 192.6C392.8 194.3 391.4 196.4 390.5 198.7C389.6 201.1 389.1 203.5 389.1 206.2Z" fill="white"/>
<path d="M497.7 185.1V187.5H482.3V227.1H479.8V187.5H464.4V185.1H497.7Z" fill="white"/>
<path d="M532 206.1C532 203.1 532.6 200.4 533.7 197.7C534.8 195.1 536.3 192.8 538.3 190.9C540.2 189 542.5 187.4 545.1 186.3C547.7 185.2 550.5 184.6 553.4 184.6C556.4 184.6 559.1 185.2 561.8 186.3C564.4 187.4 566.7 189 568.6 190.9C570.5 192.8 572.1 195.1 573.2 197.7C574.3 200.3 574.9 203.1 574.9 206.1C574.9 209.1 574.3 211.8 573.2 214.4C572.1 217 570.5 219.3 568.6 221.2C566.7 223.1 564.4 224.7 561.8 225.8C559.2 226.9 556.4 227.5 553.4 227.5C550.4 227.5 547.7 226.9 545.1 225.8C542.5 224.7 540.2 223.2 538.3 221.2C536.4 219.3 534.8 217 533.7 214.4C532.6 211.9 532 209.1 532 206.1ZM534.5 206.2C534.5 208.8 535 211.3 536 213.6C537 215.9 538.3 217.9 540 219.6C541.7 221.3 543.7 222.7 546 223.6C548.3 224.6 550.7 225.1 553.3 225.1C555.9 225.1 558.4 224.6 560.7 223.6C563 222.6 565.1 221.2 566.8 219.5C568.5 217.8 569.9 215.8 570.9 213.5C571.9 211.2 572.4 208.7 572.4 206.1C572.4 203.5 571.9 201 570.9 198.7C569.9 196.4 568.5 194.3 566.8 192.6C565.1 190.9 563.1 189.5 560.7 188.5C558.4 187.5 555.9 187 553.3 187C550.7 187 548.2 187.5 545.9 188.5C543.6 189.5 541.6 190.9 539.9 192.6C538.2 194.3 536.8 196.4 535.9 198.7C535 201.1 534.5 203.5 534.5 206.2Z" fill="white"/>
<path d="M644 222.5L645.4 224.5C643.8 225.4 642.1 226.1 640.3 226.7C638.5 227.2 636.5 227.5 634.5 227.5C631.5 227.5 628.8 226.9 626.2 225.8C623.6 224.7 621.3 223.2 619.4 221.2C617.5 219.3 615.9 217 614.8 214.4C613.7 211.8 613.1 209 613.1 206.1C613.1 203.1 613.7 200.4 614.8 197.7C615.9 195.1 617.4 192.8 619.4 190.9C621.3 189 623.6 187.4 626.2 186.3C628.8 185.2 631.6 184.6 634.5 184.6C636.5 184.6 638.5 184.9 640.3 185.4C642.1 185.9 643.8 186.7 645.5 187.6C645.3 187.9 645 188.3 644.8 188.6C644.6 189 644.3 189.3 644.1 189.6C642.7 188.8 641.2 188.1 639.6 187.7C638 187.3 636.3 187 634.5 187C631.9 187 629.4 187.5 627.1 188.5C624.8 189.5 622.8 190.9 621.1 192.6C619.4 194.3 618 196.4 617.1 198.7C616.1 201 615.6 203.5 615.6 206.1C615.6 208.7 616.1 211.1 617.1 213.4C618.1 215.7 619.4 217.7 621.1 219.4C622.8 221.1 624.8 222.5 627.1 223.5C629.4 224.5 631.8 225 634.4 225C636.2 225 637.9 224.8 639.5 224.3C641 224 642.5 223.3 644 222.5Z" fill="white"/>
<path d="M683.8 206.1C683.8 203.1 684.4 200.4 685.5 197.7C686.6 195.1 688.1 192.8 690.1 190.9C692 189 694.3 187.4 696.9 186.3C699.5 185.2 702.3 184.6 705.2 184.6C708.2 184.6 710.9 185.2 713.6 186.3C716.2 187.4 718.5 189 720.4 190.9C722.3 192.8 723.9 195.1 725 197.7C726.1 200.3 726.7 203.1 726.7 206.1C726.7 209.1 726.1 211.8 725 214.4C723.9 217 722.3 219.3 720.4 221.2C718.5 223.1 716.2 224.7 713.6 225.8C711 226.9 708.2 227.5 705.2 227.5C702.2 227.5 699.5 226.9 696.9 225.8C694.3 224.7 692 223.2 690.1 221.2C688.2 219.3 686.6 217 685.5 214.4C684.3 211.9 683.8 209.1 683.8 206.1ZM686.3 206.2C686.3 208.8 686.8 211.3 687.8 213.6C688.8 215.9 690.1 217.9 691.8 219.6C693.5 221.3 695.5 222.7 697.8 223.6C700.1 224.6 702.5 225.1 705.1 225.1C707.7 225.1 710.2 224.6 712.5 223.6C714.8 222.6 716.9 221.2 718.6 219.5C720.3 217.8 721.7 215.8 722.7 213.5C723.7 211.2 724.2 208.7 724.2 206.1C724.2 203.5 723.7 201 722.7 198.7C721.7 196.4 720.3 194.3 718.6 192.6C716.9 190.9 714.9 189.5 712.5 188.5C710.2 187.5 707.7 187 705.1 187C702.5 187 700 187.5 697.7 188.5C695.4 189.5 693.4 190.9 691.7 192.6C690 194.3 688.6 196.4 687.7 198.7C686.8 201.1 686.3 203.5 686.3 206.2Z" fill="white"/>
<path d="M766.5 227.1V185.1H769V224.7H792.3V227.1H766.5Z" fill="white"/>
</svg>
