<svg width="63" height="63" viewBox="0 0 63 63" fill="none" xmlns="http://www.w3.org/2000/svg">
<path d="M56.25 0H6.75C2.925 0 0 2.925 0 6.75V56.25C0 60.075 2.925 63 6.75 63H56.25C60.075 63 63 60.075 63 56.25V6.75C63 2.925 60.075 0 56.25 0ZM6.75 4.5H56.25C57.6 4.5 58.5 5.4 58.5 6.75V26.775L54.225 23.4C51.525 21.15 47.25 21.6 45 24.3L32.4 38.475L24.975 32.4C22.275 30.15 18 30.375 15.75 33.075L4.5 45.675V6.75C4.5 5.4 5.4 4.5 6.75 4.5ZM4.5 56.25V52.875L19.125 36.225C20.025 35.325 21.375 35.325 22.275 36L29.475 41.85L14.85 58.5H6.75C5.4 58.5 4.5 57.6 4.5 56.25ZM56.25 58.5H20.7L34.425 42.975L48.375 27.225C49.275 26.325 50.625 26.325 51.525 27L58.5 32.625V56.25C58.5 57.6 57.6 58.5 56.25 58.5ZM15.75 22.5C19.575 22.5 22.5 19.575 22.5 15.75C22.5 11.925 19.575 9 15.75 9C11.925 9 9 11.925 9 15.75C9 19.575 11.925 22.5 15.75 22.5ZM15.75 13.5C17.1 13.5 18 14.4 18 15.75C18 17.1 17.1 18 15.75 18C14.4 18 13.5 17.1 13.5 15.75C13.5 14.4 14.4 13.5 15.75 13.5Z" fill="#108DAA"/>
</svg>
